0
SECTION
2
HEADER
9
$INSUNITS
70
4
9
$ACADVER
1
AC1014
9
$HANDSEED
5
FFFF
0
ENDSEC
0
SECTION
2
TABLES
0
TABLE
2
VPORT
5
8
100
AcDbSymbolTable
0
ENDTAB
0
TABLE
2
LTYPE
5
5
100
AcDbSymbolTable
0
LTYPE
5
14
100
AcDbSymbolTableRecord
100
AcDbLinetypeTableRecord
2
BYBLOCK
70
0
0
LTYPE
5
15
100
AcDbSymbolTableRecord
100
AcDbLinetypeTableRecord
2
BYLAYER
70
0
0
LTYPE
5
16
100
AcDbSymbolTableRecord
100
AcDbLinetypeTableRecord
2
DASHED
70
0
3
Dashed __ __ __ __ __ __ __ __ __ __ __ __ __ _
72
65
73
2
40
0.75
49
0.5
74
0
49
-0.25
74
0
0
ENDTAB
0
TABLE
2
LAYER
5
2
100
AcDbSymbolTable
70
2
0
LAYER
5
50
100
AcDbSymbolTableRecord
100
AcDbLayerTableRecord
2
0
70
0
62
7
6
CONTINUOUS
0
ENDTAB
0
TABLE
2
STYLE
5
3
100
AcDbSymbolTable
70
1
0
STYLE
5
11
100
AcDbSymbolTableRecord
100
AcDbTextStyleTableRecord
2
STANDARD
70
0
0
ENDTAB
0
TABLE
2
VIEW
5
6
100
AcDbSymbolTable
70
0
0
ENDTAB
0
TABLE
2
UCS
5
7
100
AcDbSymbolTable
70
0
0
ENDTAB
0
TABLE
2
APPID
5
9
100
AcDbSymbolTable
70
2
0
APPID
5
12
100
AcDbSymbolTableRecord
100
AcDbRegAppTableRecord
2
ACAD
70
0
0
ENDTAB
0
TABLE
2
DIMSTYLE
5
A
100
AcDbSymbolTable
70
1
0
ENDTAB
0
TABLE
2
BLOCK_RECORD
5
1
100
AcDbSymbolTable
70
1
0
BLOCK_RECORD
5
1F
100
AcDbSymbolTableRecord
100
AcDbBlockTableRecord
2
*MODEL_SPACE
0
BLOCK_RECORD
5
1B
100
AcDbSymbolTableRecord
100
AcDbBlockTableRecord
2
*PAPER_SPACE
0
ENDTAB
0
ENDSEC
0
SECTION
2
BLOCKS
0
BLOCK
5
20
100
AcDbEntity
100
AcDbBlockBegin
2
*MODEL_SPACE
0
ENDBLK
5
21
100
AcDbEntity
100
AcDbBlockEnd
0
BLOCK
5
1C
100
AcDbEntity
100
AcDbBlockBegin
2
*PAPER_SPACE
0
ENDBLK
5
1D
100
AcDbEntity
100
AcDbBlockEnd
0
ENDSEC
0
SECTION
2
ENTITIES
0
LWPOLYLINE
5
100
100
AcDbEntity
8
0
100
AcDbPolyline
90
20
70
1
43
0.0
10
-168.85000000000002
20
-47.699998933821917
10
-168.85000000000002
20
-46.5
42
-0.41421356237309503
10
-171.85000000000002
20
-43.5
10
-171.85000000000002
20
0
10
-242.00000000000003
20
0
10
-242.00000000000003
20
-342
10
0
20
-342
10
0
20
0
10
-74.950000000000017
20
0
10
-74.950000000000017
20
-43.5
42
-0.41421356237309503
10
-77.950000000000017
20
-46.499999999999993
10
-77.950000000000017
20
-47.700000000000003
10
-4.2000000000000171
20
-47.700000000000003
42
-0.41421356237309503
10
-1.2000000000000166
20
-50.700000000000003
10
-1.2000000000000022
20
-59.400000000000006
42
-0.41421356237309498
10
-4.2000000000000002
20
-62.400000000000006
10
-221.80000000000001
20
-62.400000000000013
42
-0.41421356237309503
10
-224.80000000000001
20
-59.400000000000006
10
-224.80000000000001
20
-50.700000000000003
42
-0.41421356237309503
10
-221.80000000000001
20
-47.700000000000003
0
LWPOLYLINE
5
101
100
AcDbEntity
8
0
100
AcDbPolyline
90
16
70
1
43
0.0
10
-77.950000000000017
20
-46.499999999999986
10
-119.28699999999999
20
-46.499999999999993
10
-119.28699999999999
20
-52.950000000000024
10
-127.91300000000001
20
-52.950000000000045
10
-127.91300000000001
20
-46.499999999999986
10
-168.85000000000002
20
-46.499999999999986
10
-168.85000000000002
20
-47.699998933821917
10
-221.80000000000001
20
-47.700000000000003
42
0.41421356237309503
10
-224.80000000000001
20
-50.700000000000003
10
-224.80000000000001
20
-59.400000000000006
42
0.41421356237309503
10
-221.80000000000001
20
-62.400000000000006
10
-4.2000000000000171
20
-62.400000000000006
42
0.41421356237309664
10
-1.2
20
-59.400000000000006
10
-1.2
20
-50.700000000000003
42
0.41421356237309503
10
-4.2000000000000171
20
-47.700000000000003
10
-77.950000000000017
20
-47.700000000000003
0
LWPOLYLINE
5
102
100
AcDbEntity
8
0
100
AcDbPolyline
90
4
70
1
43
0.0
10
-127.91300000000001
20
-46.499999999999986
10
-127.91300000000001
20
-52.950000000000045
10
-119.28699999999999
20
-52.950000000000024
10
-119.28699999999999
20
-46.499999999999993
0
LWPOLYLINE
5
103
100
AcDbEntity
8
0
100
AcDbPolyline
90
4
70
1
43
0.0
10
-242.00000000000003
20
0
10
-244.36500000000001
20
4.9303806576313238e-31
10
-244.36500000000001
20
2.3650000000000002
10
-242.00000000000003
20
2.3650000000000002
0
LINE
5
104
100
AcDbEntity
8
0
100
AcDbLine
10
-74.950000000000017
20
0
30
0
11
-171.85000000000002
21
0
31
0
0
ENDSEC
0
SECTION
2
OBJECTS
0
DICTIONARY
5
C
100
AcDbDictionary
3
ACAD_GROUP
350
D
3
ACAD_MLINESTYLE
350
17
0
DICTIONARY
5
D
100
AcDbDictionary
0
DICTIONARY
5
1A
330
C
100
AcDbDictionary
0
DICTIONARY
5
17
100
AcDbDictionary
0
ENDSEC
0
EOF
